<svg width="67" height="67" viewBox="0 0 67 67" fill="none" xmlns="http://www.w3.org/2000/svg">
<path d="M26.0159 43.0599C21.03 39.1838 20.2314 31.8168 24.2888 26.5977C28.3463 21.3786 35.6827 20.336 40.6686 24.2121C45.6544 28.0883 46.4531 35.4552 42.3956 40.6743C38.3381 45.8934 31.0018 46.936 26.0159 43.0599Z" fill="#EFECA0" stroke="#B5540E"/>
<path d="M54.3332 42.9421L46.322 36.3281C46.4021 39.2336 45.8405 40.5631 43.518 42.2886L54.3332 42.9421Z" fill="#EFECA0" stroke="#B5540E"/>
<path d="M30.972 56.9293L34.5635 47.1813C31.8481 48.218 30.4076 48.1279 28.011 46.5069L30.972 56.9293Z" fill="#EFECA0" stroke="#B5540E"/>
<path d="M28.9286 9.82552L27.4631 20.1103C29.9004 18.5267 31.3277 18.3125 34.0112 19.3943L28.9286 9.82552Z" fill="#EFECA0" stroke="#B5540E"/>
<path d="M10.1924 27.0787L18.779 32.9263C18.4315 30.0406 18.8681 28.665 21.0218 26.7328L10.1924 27.0787Z" fill="#EFECA0" stroke="#B5540E"/>
<path d="M16.9903 16.4525L22.0605 25.5198C23.0387 22.7827 24.0438 21.747 26.8337 20.9803L16.9903 16.4525Z" fill="#EFECA0" stroke="#B5540E"/>
<path d="M40.4093 10.8252L34.91 19.6389C37.7795 19.1762 39.1715 19.5574 41.1883 21.632L40.4093 10.8252Z" fill="#EFECA0" stroke="#B5540E"/>
<path d="M51.9888 18.6439L42.109 21.8553C44.6038 23.3467 45.4244 24.534 45.6343 27.4197L51.9888 18.6439Z" fill="#EFECA0" stroke="#B5540E"/>
<path d="M10.7585 41.6909L21.1207 40.9501C19.0578 38.9024 18.5468 37.5526 19.0372 34.7012L10.7585 41.6909Z" fill="#EFECA0" stroke="#B5540E"/>
<path d="M19.1153 52.3438L27.1558 45.7655C24.2898 45.2813 23.0942 44.4729 21.8513 41.8601L19.1153 52.3438Z" fill="#EFECA0" stroke="#B5540E"/>
<path d="M55.9965 29.8081L45.7469 28.1142C47.2759 30.5861 47.4583 32.0178 46.317 34.6766L55.9965 29.8081Z" fill="#EFECA0" stroke="#B5540E"/>
<path d="M44.1866 54.0454L41.7353 43.9501C40.0586 46.3243 38.8124 47.0524 35.9191 47.0423L44.1866 54.0454Z" fill="#EFECA0" stroke="#B5540E"/>
</svg>
